<?xml version="1.0" encoding="utf-8"?>
<!-- Svg Vector Icons : http://www.onlinewebfonts.com/icon -->
<!DOCTYPE svg PUBLIC "-//W3C//DTD SVG 1.1//EN" "http://www.w3.org/Graphics/SVG/1.1/DTD/svg11.dtd">
<svg version="1.1" xmlns="http://www.w3.org/2000/svg" xmlns:xlink="http://www.w3.org/1999/xlink" x="0px" y="0px" viewBox="0 0 1000 1000" enable-background="new 0 0 1000 1000" xml:space="preserve" fill="#fff">
<metadata> Svg Vector Icons : http://www.onlinewebfonts.com/icon </metadata>
<g><path d="M322.4,598h94.1c149,0,337.1,0,376.3,0c31.4-62.7,156.8-329.3,172.5-376.3c15.7-54.9,15.7-86.2-15.7-94.1c-54.9,0-533.1,0-658.6,0L259.7,10h-78.4H24.5v117.6h156.8l70.6,399.8c0,0-54.9,180.3-62.7,203.8c-7.8,23.5,0,62.7,31.4,62.7s666.4,0,666.4,0v-86.2H283.2L322.4,598z"/><path d="M259.7,911.6c0,43.3,35.1,78.4,78.4,78.4c43.3,0,78.4-35.1,78.4-78.4c0-43.3-35.1-78.4-78.4-78.4C294.8,833.2,259.7,868.3,259.7,911.6z"/><path d="M651.7,911.6c0,43.3,35.1,78.4,78.4,78.4s78.4-35.1,78.4-78.4c0-43.3-35.1-78.4-78.4-78.4S651.7,868.3,651.7,911.6z"/></g>
</svg>