<?xml version="1.0" encoding="utf-8"?>
<!-- Svg Vector Icons : http://www.onlinewebfonts.com/icon -->
<!DOCTYPE svg PUBLIC "-//W3C//DTD SVG 1.1//EN" "http://www.w3.org/Graphics/SVG/1.1/DTD/svg11.dtd">
<svg version="1.1" xmlns="http://www.w3.org/2000/svg" xmlns:xlink="http://www.w3.org/1999/xlink" x="0px" y="0px" viewBox="0 0 1000 1000" enable-background="new 0 0 1000 1000" xml:space="preserve" fill="#fff">
<metadata> Svg Vector Icons : http://www.onlinewebfonts.com/icon </metadata>
<g><path d="M500,10C229.4,10,10,229.4,10,500c0,270.6,219.4,490,490,490s490-219.4,490-490C990,229.4,770.6,10,500,10z M500,959.4C246.7,959.4,40.6,753.3,40.6,500S246.7,40.6,500,40.6S959.4,246.7,959.4,500S753.3,959.4,500,959.4z M561.6,512.1c47.2-23,80-71,80-127c0-78.1-63.5-141.6-141.6-141.6S358.4,307,358.4,385.2c0,55.9,32.9,104,80,127C335.2,539.5,258.8,633.4,258.8,745c0,6.3,5.1,11.5,11.5,11.5s11.5-5.1,11.5-11.5c0-120.3,97.9-218.2,218.2-218.2S718.2,624.7,718.2,745c0,6.3,5.1,11.5,11.5,11.5s11.5-5.1,11.5-11.5C741.2,633.4,664.8,539.4,561.6,512.1z M381.3,385.2c0-65.4,53.2-118.7,118.7-118.7s118.7,53.2,118.7,118.7S565.4,503.8,500,503.8S381.3,450.6,381.3,385.2z"/></g>
</svg>